<!-- Generated by IcoMoon.io -->
<svg version="1.1" xmlns="http://www.w3.org/2000/svg" width="1280" height="1024" viewBox="0 0 1280 1024">
<title></title>
<g id="icomoon-ignore">
</g>
<path fill="#000" d="M832 63.88c0-20.38-15.8-63.88-63.8-63.88-27.96 0-53.74 18.144-61.78 46.36l-256 896c-1.681 5.87-2.482 11.784-2.482 17.602-1.738 20.638 16.062 64.038 64.062 64.038 27.84 0 53.46-18.314 61.5-46.44l256-896c1.7-5.94 2.5-11.86 2.5-17.68zM352 286.2c0-36.56-29.9-64-64-64-16.376 0-32.76 6.25-45.24 18.752l-224 224c-12.51 14.248-18.76 30.648-18.76 45.248s6.25 34.6 18.75 47l224 224c12.45 12.6 28.85 17 45.25 17 34.1 0 64-27.46 64-64 0-16.376-6.25-32.76-18.75-45.26l-178.75-178.74 178.76-178.76c12.54-10.84 18.74-27.040 18.74-45.24zM1280 510.2c0-16.376-6.25-32.76-18.75-45.26l-224-224c-12.45-10.74-28.85-18.74-45.25-18.74-34.1 0-64 27.46-64 64 0 16.376 6.25 32.76 18.75 45.26l178.76 178.76-178.76 178.76c-12.55 14.22-18.75 30.62-18.75 45.22 0 36.56 29.9 64 64 64 16.376 0 32.76-6.25 45.24-18.752l224-224c12.56-10.648 18.76-27.048 18.76-45.248z"></path>
</svg>
