<!-- Generated by IcoMoon.io -->
<svg version="1.1" xmlns="http://www.w3.org/2000/svg" width="1024" height="1024" viewBox="0 0 1024 1024">
<title></title>
<g id="icomoon-ignore">
</g>
<path fill="#000" d="M453.148 295.779h0.051v497.339h-130.551l-11.19-42.895h-3.73c-16.163 16.163-34.814 29.219-55.95 39.166s-41.652 14.92-61.545 14.92c-38.544 0-72.114-9.946-100.711-29.841s-50.667-48.18-66.208-84.858c-15.542-36.679-23.313-79.884-23.313-129.619 0-49.112 9.014-92.163 27.043-129.153s41.652-65.431 70.87-85.325c29.219-19.894 59.992-29.841 92.318-29.841 23.624 0 43.672 3.885 60.147 11.657 14.487 6.834 28.613 16.671 42.379 29.513v-127.124c5.161-57.781 58.624-86.671 160.389-86.671h0.003v152.731zM292.807 608.819h-0.051v-140.26c-16.777-14.89-37.896-22.335-63.36-22.335-18.65 0-34.192 9.014-46.625 27.043s-18.65 46.314-18.65 84.858c0 40.409 5.906 69.783 17.718 88.122s28.908 27.509 51.288 27.509c13.055 0 24.245-2.487 33.57-7.46s18.029-13.677 26.111-26.111v-31.367zM470.006 955.284l0.074-0.029c73.013-28.777 109.036-88.421 108.071-178.933 0.002-0.614 0.005-1.231 0.005-1.854l1.865-447.606h160.392l-1.865 442.010c0 59.059-13.988 107.083-41.963 144.073s-74.29 55.484-138.944 55.484c-34.814 0-64.032-4.351-87.656-13.055l0.021-0.091zM663.34 243.369c-51.859 0-93.899-42.040-93.899-93.899s42.040-93.899 93.899-93.899c51.859 0 93.899 42.040 93.899 93.899s-42.040 93.899-93.899 93.899zM930.101 794.418c-51.859 0-93.899-42.040-93.899-93.899s42.040-93.899 93.899-93.899c51.859 0 93.899 42.040 93.899 93.899s-42.040 93.899-93.899 93.899z"></path>
</svg>
