<!-- Generated by IcoMoon.io -->
<svg version="1.1" xmlns="http://www.w3.org/2000/svg" width="1024" height="1024" viewBox="0 0 1024 1024">
<title></title>
<g id="icomoon-ignore">
</g>
<path fill="#000" d="M960 832v-128c0-35.34-28.66-64-64-64s-64 28.66-64 64v128c0 35.34-28.66 64-64 64h-512c-35.34 0-64-28.66-64-64v-128c0-35.34-28.66-64-64-64s-64 28.66-64 64v128c0 106.040 85.96 192 192 192h512c106.040 0 192-86 192-192zM557.2 685.2l256-256c25.020-25.020 24.98-65.52 0-90.5-25-25-65.5-25-90.5 0l-146.7 146.9v-421.6c0-35.38-28.6-64-64-64s-64 28.62-64 64v421.6l-146.76-146.76c-25-25-65.5-25-90.5 0s-25 65.5 0 90.5l256 256c25.060 24.86 65.46 24.86 90.46-0.14z"></path>
</svg>
