<!-- Generated by IcoMoon.io -->
<svg version="1.1" xmlns="http://www.w3.org/2000/svg" width="1024" height="1024" viewBox="0 0 1024 1024">
<title></title>
<g id="icomoon-ignore">
</g>
<path fill="#000" d="M784.794 943.718c-89.344 0-147.098-42.598-175.258-98.304l78.336-45.363c20.634 33.69 47.411 58.419 94.874 58.419 39.834 0 65.28-19.917 65.28-47.411 0-41.37-55.194-57.549-94.157-74.24-69.427-29.542-115.507-66.662-115.507-145.050 0-72.141 54.989-127.13 140.954-127.13 61.133 0 105.165 21.299 136.755 76.954l-74.906 48.128c-16.486-29.542-34.355-41.216-61.85-41.216-28.211 0-46.080 17.869-46.080 41.216 0 28.877 17.869 40.55 59.136 58.419 86.477 37.069 151.91 66.202 151.91 161.536 0 86.63-68.045 134.042-159.488 134.042zM563.2 798.669c0 99.686-61.389 152.371-146.637 152.371-77.005 0-123.136-29.44-145.818-80.64h-1.331l78.285-54.733c15.104 26.778 28.723 45.773 61.696 45.773 31.642 0 51.405-16.026 51.405-64.102v-336.538h102.4v337.869zM0 1024h1024v-1024h-1024v1024z"></path>
</svg>
