<!-- Generated by IcoMoon.io -->
<svg version="1.1" xmlns="http://www.w3.org/2000/svg" width="1024" height="1024" viewBox="0 0 1024 1024">
<title></title>
<g id="icomoon-ignore">
</g>
<path fill="#000" d="M852.021 245.036c53.542 26.395 175.838 159.914 171.886 168.725-4.011 8.792-62.373 57.552-79.957 76.736-38.188 87.642-72.627 150.397-84.995 80.51-14.060 84.051-44.158 76.694-55.912 117.752-17.153 84.478-66.502 87.362-88.907 103.132-20.547 20.547-49.985 8.693-72.706 20.35-57.71 21.533-194.039 25.338-248.544 0.79-29.156-12.568-43.753 6.986-126.050-49.393-43.844-43.597-31.45-63.427-46.627-92.72-25.056-43.21-33.929-15.010-53.245-111.548-5.851 77.941-47.911 36.238-86.674-69.327 0 0-76.242-67.589-80.194-76.282-4.011-8.812 118.285-142.33 171.886-168.725 151.963-68.9 512.534-67.079 680.038 0zM592.32 477.201c82.098 27.807 159.681 116.133 146.869 197.175 0 42.083-3.754 70.533-9.879 89.697 70.097-45.998 39.385-60.785 67.273-105.009 26.32-44.915 31.605-28.473 45.204-89.262-8.14-60.852-16.003-168.686-25.724-200.89-8.495-27.66-49.59-85.153-76.104-120.34-129.291-49.905-385.291-33.905-450.974-1.976-26.474 34.97-69.347 94.439-78.040 122.889-9.187 30.505-17.534 135.383-25.239 197.42 6.351 59.010 50.863 85.103 57.502 116.341 7.106 50.288 30.065 67.398 61.919 84.58-7.113-19.559-11.262-49.195-11.262-94.636-13.28-93.778 77.84-173.579 151.642-196.583 20.404-54.165 130.789-49.161 146.813 0.593zM606.619 703.211c0-57.295-46.96-104.92-82.128-107.785l2.072-84.264c67.939-4.319 60.053-54.063-8.555-57.552-52.72 0.456-89.725 48.987-8.834 57.453l-0.062 84.066c-35.168 0-81.473 48.567-81.473 106.929 5.481-58.565 51.097-88.858 92.781-87.598 40.604 1.228 77.253 32.504 86.198 88.749zM332.471 420.834c0-14.092-15.36-22.947-27.582-15.901s-12.222 24.757 0 31.803c12.222 7.046 27.582-1.809 27.582-15.901zM260.476 512.92c-46.784-26.972-46.785-94.767 0-121.739s105.583 6.926 105.583 60.87-58.798 87.841-105.583 60.87zM700.9 512.919c-46.784-26.972-46.785-94.767 0-121.739s105.583 6.926 105.583 60.87-58.798 87.841-105.583 60.869zM736.147 420.834c0-14.092-15.36-22.947-27.582-15.901s-12.222 24.757 0 31.803 27.582-1.809 27.582-15.901z"></path>
</svg>
