<!-- Generated by IcoMoon.io -->
<svg version="1.1" xmlns="http://www.w3.org/2000/svg" width="1676" height="1024" viewBox="0 0 1676 1024">
<title></title>
<g id="icomoon-ignore">
</g>
<path d="M838 17.309c-219.862 0-357.277 109.931-412.242 329.794 82.449-109.931 178.638-151.156 288.569-123.673 62.722 15.666 107.55 61.195 157.171 111.55 80.83 82.051 174.394 177.020 378.744 177.020 219.862 0 357.277-109.931 412.242-329.794-82.449 109.931-178.638 151.156-288.569 123.673-62.722-15.666-107.55-61.195-157.171-111.55-80.83-82.051-174.394-177.020-378.744-177.020zM425.758 512c-219.862 0-357.277 109.931-412.242 329.794 82.449-109.931 178.638-151.156 288.569-123.673 62.722 15.696 107.55 61.195 157.171 111.55 80.83 82.051 174.394 177.020 378.744 177.020 219.862 0 357.277-109.931 412.242-329.794-82.449 109.931-178.638 151.156-288.569 123.673-62.722-15.666-107.55-61.195-157.171-111.55-80.83-82.051-174.394-177.020-378.744-177.020z"></path>
</svg>
