<!-- Generated by IcoMoon.io -->
<svg version="1.1" xmlns="http://www.w3.org/2000/svg" width="1152" height="1024" viewBox="0 0 1152 1024">
<title></title>
<g id="icomoon-ignore">
</g>
<path fill="#000" d="M1145.040 482.8c-108.46-211.62-323.18-354.8-569.040-354.8s-460.64 143.28-569.040 354.82c-4.387 8.495-6.959 18.542-6.959 29.19s2.572 20.695 7.129 29.553l-0.17-0.363c108.46 211.62 323.18 354.8 569.040 354.8s460.64-143.28 569.040-354.82c4.387-8.495 6.959-18.542 6.959-29.19s-2.572-20.695-7.129-29.553l0.17 0.363zM576 800c-159.058 0-288-128.942-288-288s128.942-288 288-288c159.058 0 288 128.942 288 288v0c0 0.041 0 0.091 0 0.14 0 158.981-128.879 287.86-287.86 287.86-0.049 0-0.098 0-0.147 0h0.007zM576 320c-18.13 0.261-35.516 3.012-51.969 7.926l1.349-0.346c11.631 15.661 18.62 35.374 18.62 56.72 0 52.854-42.846 95.7-95.7 95.7-21.346 0-41.059-6.988-56.977-18.802l0.257 0.182c-4.247 15.047-6.689 32.328-6.689 50.179 0 105.796 85.764 191.56 191.56 191.56s191.56-85.764 191.56-191.56c0-105.796-85.764-191.56-191.56-191.56-0.159 0-0.317 0-0.476 0.001h0.025z"></path>
</svg>
